<?xml version="1.0" encoding="UTF-8"?>
<svg xmlns="http://www.w3.org/2000/svg"
     width="500"
     height="500"
     viewBox="0 0 500 500"
     preserveAspectRatio="xMidYMid meet">
  <rect x="0" y="0" width="500" height="500" fill="#ffffff"/>

  <!-- Shifted original group to center (500-375)/2 = 62.5 -->
  <g transform="translate(62.5,62.5)">
    <rect x="0" y="0" width="375" height="375" fill="#ffffff"/>
    <path fill="#1e842e" d="M 235.234375 178.542969 L 265.421875 116.378906 L 258.25 113.15625 L 279.417969 100.53125 L 286.375 123.886719 L 279.316406 121.105469 L 244.632812 191.570312 L 232.550781 186.367188 Z"/>
    <path fill="#1e842e" d="M 209.511719 155.140625 L 227.84375 191.605469 L 244.617188 191.605469 L 220.015625 141.953125 Z"/>
    <path fill="#1e842e" d="M 203.207031 141.953125 L 158.222656 232.851562 L 174.738281 232.941406 L 220.019531 141.953125 Z"/>
    <path fill="#1e842e" d="M 139.652344 196.4375 L 157.988281 232.902344 L 174.765625 232.902344 L 150.160156 183.25 Z"/>
    <path fill="#1e842e" d="M 133.359375 183.25 L 88.375 274.144531 L 104.886719 274.238281 L 150.167969 183.25 Z"/>
  </g>
</svg>
